<?xml version="1.0" encoding="UTF-8"?>
<svg width="24px" height="23px" viewBox="0 0 24 23" version="1.1" xmlns="http://www.w3.org/2000/svg" xmlns:xlink="http://www.w3.org/1999/xlink">
    <!-- Generator: Sketch 52.5 (67469) - http://www.bohemiancoding.com/sketch -->
    <title>3a09a524440d44d7f19870070a5ad42f</title>
    <desc>Created with Sketch.</desc>
    <g id="Symbols" stroke="none" stroke-width="1" fill="none" fill-rule="evenodd">
        <g id="3a09a524440d44d7f19870070a5ad42f" fill="#525252">
            <g id="Path">
                <path d="M19.9584098,12.5385343 C19.564526,12.5385343 19.2440367,12.8946809 19.2440367,13.3323877 L19.2440367,21.3959811 L4.73149847,21.3959811 L4.73149847,13.3351064 C4.73149847,12.8973995 4.41100917,12.541253 4.01712538,12.541253 C3.62324159,12.541253 3.30275229,12.8973995 3.30275229,13.3351064 L3.30275229,22.1925532 C3.30275229,22.63026 3.62324159,22.9864066 4.01712538,22.9864066 L19.9608563,22.9864066 C20.3547401,22.9864066 20.6752294,22.63026 20.6752294,22.1925532 L20.6752294,13.3351064 C20.6752294,12.8946809 20.3547401,12.5385343 19.9584098,12.5385343 Z"></path>
                <path d="M23.7651376,12.7723404 L12.4917431,0.244680851 C12.212844,-0.065248227 11.7602446,-0.065248227 11.4813456,0.244680851 L0.210397554,12.7723404 C-0.0685015291,13.0822695 -0.0685015291,13.5852246 0.210397554,13.8951537 C0.349847095,14.0501182 0.533333333,14.1289598 0.716819572,14.1289598 C0.90030581,14.1289598 1.08379205,14.0501182 1.22324159,13.8951537 L11.9877676,1.93026005 L22.7547401,13.8951537 C23.0336391,14.2050827 23.4862385,14.2050827 23.7651376,13.8951537 C24.0464832,13.5852246 24.0464832,13.0822695 23.7651376,12.7723404 Z"></path>
            </g>
        </g>
    </g>
</svg>