<?xml version="1.0" encoding="UTF-8"?>
<svg width="100px" height="100px" viewBox="0 0 100 100" version="1.1" xmlns="http://www.w3.org/2000/svg" xmlns:xlink="http://www.w3.org/1999/xlink">
    <!-- Generator: Sketch 52.5 (67469) - http://www.bohemiancoding.com/sketch -->
    <title>Untitled</title>
    <desc>Created with Sketch.</desc>
    <g id="Page-1" stroke="none" stroke-width="1" fill="none" fill-rule="evenodd">
        <g id="question">
            <path d="M99.8305835,49.916499 C99.8305835,22.3466801 77.4826962,0.00060362173 49.9160966,0.00060362173 C22.3480885,0.00060362173 0,22.3466801 0,49.916499 C0,77.4820926 22.3480885,99.8299799 49.9160966,99.8299799 C77.4826962,99.8299799 99.8305835,77.4820926 99.8305835,49.916499 Z" id="Path" fill="#25B7D3"></path>
            <path d="M27.8100604,34.9279678 C27.8100604,32.128169 28.7088531,29.2911469 30.506841,26.417505 C32.3042254,23.5438632 34.9279678,21.1639839 38.3762575,19.2774648 C41.8247485,17.3915493 45.8478873,16.4480885 50.445674,16.4480885 C54.7189135,16.4480885 58.4919517,17.2370221 61.7635815,18.8132797 C65.0352113,20.3903421 67.5619718,22.5346076 69.345674,25.2458753 C71.1285714,27.9579477 72.0203219,30.904829 72.0203219,34.0879276 C72.0203219,36.5933602 71.5118712,38.7895372 70.4949698,40.6752515 C69.4780684,42.5617706 68.2692153,44.1901408 66.8696177,45.5603622 C65.4694165,46.9309859 62.9569416,49.2374245 59.3317907,52.4794769 C58.3295775,53.3933602 57.5259557,54.1967807 56.922334,54.8891348 C56.3179074,55.5818913 55.8682093,56.215493 55.5738431,56.7899396 C55.2788732,57.3647887 55.0501006,57.9394366 54.8885312,58.5142857 C54.7261569,59.0887324 54.4830986,60.0987928 54.1591549,61.5426559 C53.598994,64.6082495 51.8450704,66.1406439 48.8981891,66.1406439 C47.3653924,66.1406439 46.0756539,65.639839 45.0297787,64.6374245 C43.9832998,63.6356137 43.4603622,62.1470825 43.4603622,60.1722334 C43.4603622,57.6963783 43.8430584,55.5521127 44.6098592,53.7396378 C45.3760563,51.9267606 46.3927565,50.3352113 47.6603622,48.9649899 C48.927163,47.5943662 50.6370221,45.9661972 52.7887324,44.0796781 C54.6746479,42.4293763 56.0382294,41.1839034 56.8782696,40.3438632 C57.7183099,39.5038229 58.4255533,38.5686117 59.0004024,37.5364185 C59.5750503,36.5050302 59.8625755,35.3853119 59.8625755,34.1764588 C59.8625755,31.8187123 58.9853119,29.8293763 57.231992,28.2080483 C55.4780684,26.5875252 53.2156942,25.7764588 50.445674,25.7764588 C47.2030181,25.7764588 44.8156942,26.5943662 43.283501,28.2301811 C41.7507042,29.865996 40.4541247,32.2754527 39.3929577,35.4585513 C38.3907445,38.7895372 36.4895372,40.454326 33.6897384,40.454326 C32.0386318,40.454326 30.6460765,39.8726358 29.5118712,38.7080483 C28.3772636,37.5438632 27.8100604,36.2839034 27.8100604,34.9279678 Z M49.3847082,83.3826962 C47.5865191,83.3826962 46.0171026,82.8002012 44.6762575,81.6362173 C43.3348089,80.4724346 42.6645875,78.8440644 42.6645875,76.7511066 C42.6645875,74.894165 43.3124748,73.3323944 44.6098592,72.0647887 C45.9064386,70.7977867 47.4979879,70.1637827 49.384507,70.1637827 C51.2414487,70.1637827 52.8032193,70.7977867 54.0708249,72.0647887 C55.3376258,73.3323944 55.971831,74.894165 55.971831,76.7511066 C55.971831,78.8144869 55.3086519,80.4356137 53.9822938,81.6142857 C52.6559356,82.7929577 51.1235412,83.3826962 49.3847082,83.3826962 Z" id="Shape" fill="#FFFFFF" fill-rule="nonzero"></path>
        </g>
    </g>
</svg>